<svg xmlns="http://www.w3.org/2000/svg" viewBox="0 0 600 800" width="100%" height="100%">
  <defs>
    <linearGradient id="catShirtsBg" x1="0%" y1="0%" x2="100%" y2="100%">
      <stop offset="0%" stop-color="#FAF8F5"/>
      <stop offset="100%" stop-color="#F2EDE4"/>
    </linearGradient>
  </defs>

  <rect width="600" height="800" fill="url(#catShirtsBg)"/>
  <rect x="25" y="25" width="550" height="750" fill="none" stroke="#EAE5DB" stroke-width="1"/>

  <!-- Minimalist Hanger Detail -->
  <path d="M260 140 C260 115, 340 115, 340 140 C340 155, 300 160, 300 175" fill="none" stroke="#6E665E" stroke-width="2.5" stroke-linecap="round"/>
  <line x1="190" y1="210" x2="410" y2="210" stroke="#6E665E" stroke-width="3" stroke-linecap="round"/>

  <!-- Crisp Poplin Shirt -->
  <!-- Main Body -->
  <path d="M200 210 L255 195 L345 195 L400 210 L445 350 L405 365 L385 285 L385 540 L215 540 L215 285 L195 365 L155 350 Z" fill="#FFFFFF" stroke="#DCD6CA" stroke-width="1.5"/>
  
  <!-- Spread Collar -->
  <path d="M255 195 L300 245 L345 195 L330 180 L270 180 Z" fill="#F4F0E8" stroke="#BCB4A6" stroke-width="1.5"/>
  <path d="M255 195 L300 235 L285 245 Z" fill="#EAE5DB"/>
  <path d="M345 195 L300 235 L315 245 Z" fill="#EAE5DB"/>

  <!-- Front Placket -->
  <line x1="300" y1="245" x2="300" y2="540" stroke="#DCD6CA" stroke-width="1.5"/>
  
  <!-- Minimal Buttons -->
  <circle cx="300" cy="285" r="3.5" fill="#6E665E"/>
  <circle cx="300" cy="340" r="3.5" fill="#6E665E"/>
  <circle cx="300" cy="395" r="3.5" fill="#6E665E"/>
  <circle cx="300" cy="450" r="3.5" fill="#6E665E"/>
  <circle cx="300" cy="505" r="3.5" fill="#6E665E"/>

  <!-- Chest Pocket Detail -->
  <rect x="235" y="295" width="45" height="55" fill="none" stroke="#DCD6CA" stroke-width="1.2" rx="2"/>

  <!-- Category Label Text -->
  <text x="300" y="690" font-family="'Playfair Display', serif" font-size="22" font-weight="600" fill="#181716" text-anchor="middle" letter-spacing="2">SHIRTS</text>
  <text x="300" y="715" font-family="'Plus Jakarta Sans', sans-serif" font-size="10" font-weight="600" fill="#6E665E" text-anchor="middle" letter-spacing="3">POPLIN &amp; LINEN • 14 STYLES</text>
</svg>
